# xmcd CD database file
#
# Track frame offsets:
#	150
#	23120
#	39195
#	71607
#	86582
#	99065
#	120042
#	144995
#	160477
#	178702
#	198645
#
# Disc length: 2869 seconds
#
# Revision: 0
# Processed by: cddbd v1.5.2PL0 Copyright (c) Steve Scherf et al.
# Submitted via: CDex 1.51
#
DISCID=820b330b
DTITLE=Neal Miner - The Real Neal
DYEAR=2001
DGENRE=Jazz
TTITLE0=Blues For Red And Brown
TTITLE1=Smoke Gets In Your Eyes
TTITLE2=Night Owls
TTITLE3=Put On A Happy Face
TTITLE4=The Message
TTITLE5=This Is Always
TTITLE6=Neality
TTITLE7=Pick Yourself Up
TTITLE8=Bassism
TTITLE9=Autumn Nocturne
TTITLE10=Spiffy
EXTD=YEAR: 2001
EXTT0=
EXTT1=
EXTT2=
EXTT3=
EXTT4=
EXTT5=
EXTT6=
EXTT7=
EXTT8=
EXTT9=
EXTT10=
PLAYORDER=
